<mxfile host="app.diagrams.net" modified="2023-09-09T09:48:26.811Z" agent="Mozilla/5.0 (X11; Linux x86_64) AppleWebKit/537.36 (KHTML, like Gecko) Chrome/115.0.0.0 Safari/537.36" etag="7gf_kSfamMw1NXfVwFzR" version="21.7.4" type="github" pages="2">
  <diagram name="Page-1" id="FAI6T001lzJAIioSrR1g">
    <mxGraphModel dx="1128" dy="669" grid="1" gridSize="10" guides="1" tooltips="1" connect="1" arrows="1" fold="1" page="1" pageScale="1" pageWidth="827" pageHeight="1169" math="0" shadow="0">
      <root>
        <mxCell id="0" />
        <mxCell id="1" parent="0" />
        <mxCell id="LoKs9p7SkeRGw3FrpvtR-1" value="Region" style="points=[[0,0],[0.25,0],[0.5,0],[0.75,0],[1,0],[1,0.25],[1,0.5],[1,0.75],[1,1],[0.75,1],[0.5,1],[0.25,1],[0,1],[0,0.75],[0,0.5],[0,0.25]];outlineConnect=0;gradientColor=none;html=1;whiteSpace=wrap;fontSize=12;fontStyle=0;container=1;pointerEvents=0;collapsible=0;recursiveResize=0;shape=mxgraph.aws4.group;grIcon=mxgraph.aws4.group_region;strokeColor=#147EBA;fillColor=none;verticalAlign=top;align=left;spacingLeft=30;fontColor=#147EBA;dashed=1;" vertex="1" parent="1">
          <mxGeometry x="40" y="40" width="1000" height="640" as="geometry" />
        </mxCell>
        <mxCell id="UL9ahOaAFwqd27LH-m7D-6" value="" style="outlineConnect=0;dashed=0;verticalLabelPosition=bottom;verticalAlign=top;align=center;html=1;shape=mxgraph.aws3.s3;fillColor=#E05243;gradientColor=none;" vertex="1" parent="LoKs9p7SkeRGw3FrpvtR-1">
          <mxGeometry x="880" y="220" width="76.5" height="93" as="geometry" />
        </mxCell>
        <mxCell id="UL9ahOaAFwqd27LH-m7D-7" value="AWS PrivateLink" style="sketch=0;outlineConnect=0;fontColor=#232F3E;gradientColor=none;strokeColor=#ffffff;fillColor=#232F3E;dashed=0;verticalLabelPosition=middle;verticalAlign=bottom;align=center;html=1;whiteSpace=wrap;fontSize=10;fontStyle=1;spacing=3;shape=mxgraph.aws4.productIcon;prIcon=mxgraph.aws4.privatelink;" vertex="1" parent="LoKs9p7SkeRGw3FrpvtR-1">
          <mxGeometry x="720" y="80" width="80" height="110" as="geometry" />
        </mxCell>
        <mxCell id="UL9ahOaAFwqd27LH-m7D-16" value="S3 Service" style="text;html=1;align=center;verticalAlign=middle;resizable=0;points=[];autosize=1;strokeColor=none;fillColor=none;" vertex="1" parent="LoKs9p7SkeRGw3FrpvtR-1">
          <mxGeometry x="880" y="328" width="80" height="30" as="geometry" />
        </mxCell>
        <mxCell id="LoKs9p7SkeRGw3FrpvtR-2" value="VPC" style="points=[[0,0],[0.25,0],[0.5,0],[0.75,0],[1,0],[1,0.25],[1,0.5],[1,0.75],[1,1],[0.75,1],[0.5,1],[0.25,1],[0,1],[0,0.75],[0,0.5],[0,0.25]];outlineConnect=0;gradientColor=none;html=1;whiteSpace=wrap;fontSize=12;fontStyle=0;container=1;pointerEvents=0;collapsible=0;recursiveResize=0;shape=mxgraph.aws4.group;grIcon=mxgraph.aws4.group_vpc;strokeColor=#248814;fillColor=none;verticalAlign=top;align=left;spacingLeft=30;fontColor=#AAB7B8;dashed=0;" vertex="1" parent="1">
          <mxGeometry x="80" y="80" width="600" height="582" as="geometry" />
        </mxCell>
        <mxCell id="LoKs9p7SkeRGw3FrpvtR-3" value="Public subnet" style="points=[[0,0],[0.25,0],[0.5,0],[0.75,0],[1,0],[1,0.25],[1,0.5],[1,0.75],[1,1],[0.75,1],[0.5,1],[0.25,1],[0,1],[0,0.75],[0,0.5],[0,0.25]];outlineConnect=0;gradientColor=none;html=1;whiteSpace=wrap;fontSize=12;fontStyle=0;container=1;pointerEvents=0;collapsible=0;recursiveResize=0;shape=mxgraph.aws4.group;grIcon=mxgraph.aws4.group_security_group;grStroke=0;strokeColor=#248814;fillColor=#E9F3E6;verticalAlign=top;align=left;spacingLeft=30;fontColor=#248814;dashed=0;" vertex="1" parent="LoKs9p7SkeRGw3FrpvtR-2">
          <mxGeometry x="40" y="40" width="240" height="440" as="geometry" />
        </mxCell>
        <mxCell id="UL9ahOaAFwqd27LH-m7D-1" value="" style="outlineConnect=0;dashed=0;verticalLabelPosition=bottom;verticalAlign=top;align=center;html=1;shape=mxgraph.aws3.ec2;fillColor=#F58534;gradientColor=none;" vertex="1" parent="LoKs9p7SkeRGw3FrpvtR-3">
          <mxGeometry x="60" y="140" width="76.5" height="93" as="geometry" />
        </mxCell>
        <mxCell id="UL9ahOaAFwqd27LH-m7D-3" value="" style="outlineConnect=0;dashed=0;verticalLabelPosition=bottom;verticalAlign=top;align=center;html=1;shape=mxgraph.aws3.internet_gateway;fillColor=#F58534;gradientColor=none;" vertex="1" parent="LoKs9p7SkeRGw3FrpvtR-3">
          <mxGeometry x="67.5" y="415" width="69" height="50" as="geometry" />
        </mxCell>
        <mxCell id="LoKs9p7SkeRGw3FrpvtR-4" value="Private subnet" style="points=[[0,0],[0.25,0],[0.5,0],[0.75,0],[1,0],[1,0.25],[1,0.5],[1,0.75],[1,1],[0.75,1],[0.5,1],[0.25,1],[0,1],[0,0.75],[0,0.5],[0,0.25]];outlineConnect=0;gradientColor=none;html=1;whiteSpace=wrap;fontSize=12;fontStyle=0;container=1;pointerEvents=0;collapsible=0;recursiveResize=0;shape=mxgraph.aws4.group;grIcon=mxgraph.aws4.group_security_group;grStroke=0;strokeColor=#147EBA;fillColor=#E6F2F8;verticalAlign=top;align=left;spacingLeft=30;fontColor=#147EBA;dashed=0;" vertex="1" parent="LoKs9p7SkeRGw3FrpvtR-2">
          <mxGeometry x="320" y="40" width="240" height="440" as="geometry" />
        </mxCell>
        <mxCell id="UL9ahOaAFwqd27LH-m7D-2" value="" style="outlineConnect=0;dashed=0;verticalLabelPosition=bottom;verticalAlign=top;align=center;html=1;shape=mxgraph.aws3.ec2;fillColor=#F58534;gradientColor=none;" vertex="1" parent="LoKs9p7SkeRGw3FrpvtR-4">
          <mxGeometry x="28.5" y="145" width="76.5" height="93" as="geometry" />
        </mxCell>
        <mxCell id="UL9ahOaAFwqd27LH-m7D-11" value="" style="outlineConnect=0;dashed=0;verticalLabelPosition=bottom;verticalAlign=top;align=center;html=1;shape=mxgraph.aws3.elastic_network_interface;fillColor=#F58536;gradientColor=none;" vertex="1" parent="LoKs9p7SkeRGw3FrpvtR-4">
          <mxGeometry x="140" y="30" width="60" height="60" as="geometry" />
        </mxCell>
        <mxCell id="UL9ahOaAFwqd27LH-m7D-12" value="ENI" style="text;html=1;align=center;verticalAlign=middle;resizable=0;points=[];autosize=1;strokeColor=none;fillColor=none;" vertex="1" parent="LoKs9p7SkeRGw3FrpvtR-4">
          <mxGeometry x="180" y="90" width="40" height="30" as="geometry" />
        </mxCell>
        <mxCell id="UL9ahOaAFwqd27LH-m7D-9" value="IGW" style="text;html=1;align=center;verticalAlign=middle;resizable=0;points=[];autosize=1;strokeColor=none;fillColor=none;" vertex="1" parent="LoKs9p7SkeRGw3FrpvtR-2">
          <mxGeometry x="170" y="475" width="50" height="30" as="geometry" />
        </mxCell>
        <mxCell id="UL9ahOaAFwqd27LH-m7D-13" value="" style="endArrow=classic;html=1;rounded=1;exitX=1.039;exitY=0.62;exitDx=0;exitDy=0;exitPerimeter=0;" edge="1" parent="LoKs9p7SkeRGw3FrpvtR-2" source="UL9ahOaAFwqd27LH-m7D-1" target="UL9ahOaAFwqd27LH-m7D-11">
          <mxGeometry width="50" height="50" relative="1" as="geometry">
            <mxPoint x="420" y="320" as="sourcePoint" />
            <mxPoint x="470" y="270" as="targetPoint" />
            <Array as="points">
              <mxPoint x="280" y="238" />
              <mxPoint x="350" y="238" />
              <mxPoint x="440" y="230" />
              <mxPoint x="440" y="170" />
              <mxPoint x="440" y="110" />
            </Array>
          </mxGeometry>
        </mxCell>
        <mxCell id="UL9ahOaAFwqd27LH-m7D-4" value="EC2" style="text;html=1;align=center;verticalAlign=middle;resizable=0;points=[];autosize=1;strokeColor=none;fillColor=none;" vertex="1" parent="1">
          <mxGeometry x="185" y="368" width="50" height="30" as="geometry" />
        </mxCell>
        <mxCell id="UL9ahOaAFwqd27LH-m7D-5" value="EC2" style="text;html=1;align=center;verticalAlign=middle;resizable=0;points=[];autosize=1;strokeColor=none;fillColor=none;" vertex="1" parent="1">
          <mxGeometry x="505" y="358" width="50" height="30" as="geometry" />
        </mxCell>
        <mxCell id="UL9ahOaAFwqd27LH-m7D-8" value="" style="sketch=0;outlineConnect=0;fontColor=#232F3E;gradientColor=none;fillColor=#232F3D;strokeColor=none;dashed=0;verticalLabelPosition=bottom;verticalAlign=top;align=center;html=1;fontSize=12;fontStyle=0;aspect=fixed;pointerEvents=1;shape=mxgraph.aws4.user;" vertex="1" parent="1">
          <mxGeometry x="185" y="760" width="78" height="78" as="geometry" />
        </mxCell>
        <mxCell id="UL9ahOaAFwqd27LH-m7D-15" value="" style="endArrow=classic;html=1;rounded=1;exitX=1;exitY=0.5;exitDx=0;exitDy=0;exitPerimeter=0;" edge="1" parent="1" source="UL9ahOaAFwqd27LH-m7D-11" target="UL9ahOaAFwqd27LH-m7D-6">
          <mxGeometry width="50" height="50" relative="1" as="geometry">
            <mxPoint x="500" y="400" as="sourcePoint" />
            <mxPoint x="550" y="350" as="targetPoint" />
            <Array as="points">
              <mxPoint x="760" y="180" />
              <mxPoint x="960" y="180" />
            </Array>
          </mxGeometry>
        </mxCell>
        <mxCell id="UL9ahOaAFwqd27LH-m7D-10" value="" style="endArrow=classic;html=1;rounded=1;" edge="1" parent="1">
          <mxGeometry width="50" height="50" relative="1" as="geometry">
            <mxPoint x="220.18677824267775" y="760" as="sourcePoint" />
            <mxPoint x="219.99964497041424" y="352.9999999999999" as="targetPoint" />
            <Array as="points">
              <mxPoint x="220" y="660" />
            </Array>
          </mxGeometry>
        </mxCell>
      </root>
    </mxGraphModel>
  </diagram>
  <diagram id="MAZf-UNLtU8Cf-zhig9q" name="Page-2">
    <mxGraphModel dx="1354" dy="803" grid="1" gridSize="10" guides="1" tooltips="1" connect="1" arrows="1" fold="1" page="1" pageScale="1" pageWidth="827" pageHeight="1169" math="0" shadow="0">
      <root>
        <mxCell id="0" />
        <mxCell id="1" parent="0" />
      </root>
    </mxGraphModel>
  </diagram>
</mxfile>
